<svg id="ud-icon-visit" xmlns="http://www.w3.org/2000/svg" viewBox="0 0 256 256">
  <title>apply gift visit</title>
  <path d="M207.5,94.4h-15c11.1-21.5-5-45.4-27.6-45.4-14.8,0-24.3,7.6-36.5,24.3C116.1,56.6,106.6,49,91.8,49,68.9,49,53.2,73.3,64.2,94.4H48.5a11.4,11.4,0,0,0-11.3,11.4v28.4a5.7,5.7,0,0,0,5.7,5.7h4.3v55.7a11.3,11.3,0,0,0,11.3,11.3l137.6.2a11.4,11.4,0,0,0,11.4-11.4V139.9h5.6a5.7,5.7,0,0,0,5.7-5.7V105.8A11.4,11.4,0,0,0,207.5,94.4Zm-115.7,0a14.2,14.2,0,1,1,0-28.3c7,0,12.3,1.1,30.5,28.3Zm46.4,85.3a4,4,0,0,1-4,4h-14a4,4,0,0,1-4-4V119a4,4,0,0,1,4-4h14a4,4,0,0,1,4,4Zm26.7-85.3H134.3c18.3-27.1,23.4-28.3,30.6-28.3a14.2,14.2,0,1,1,0,28.3Z"/>
</svg>
