<svg xmlns="http://www.w3.org/2000/svg" viewBox="0 0 761.1 180.1">
  <title>apply gift visit</title>
  <g id="ud-icon-visit">
    <path d="M759.5,94.4h-15c11.1-21.5-5-45.4-27.6-45.4-14.8,0-24.3,7.6-36.5,24.3C668.1,56.6,658.6,49,643.8,49c-22.9,0-38.6,24.3-27.6,45.4H600.5a11.4,11.4,0,0,0-11.3,11.4v28.4a5.7,5.7,0,0,0,5.7,5.7h4.3v55.7a11.3,11.3,0,0,0,11.3,11.3l137.6.2a11.4,11.4,0,0,0,11.4-11.4V139.9h5.6a5.7,5.7,0,0,0,5.7-5.7V105.8A11.4,11.4,0,0,0,759.5,94.4Zm-115.7,0a14.2,14.2,0,1,1,0-28.3c7,0,12.3,1.1,30.5,28.3Zm46.4,85.3a4,4,0,0,1-4,4h-14a4,4,0,0,1-4-4V119a4,4,0,0,1,4-4h14a4,4,0,0,1,4,4Zm26.7-85.3H686.3c18.3-27.1,23.4-28.3,30.6-28.3a14.2,14.2,0,1,1,0,28.3Z" transform="translate(-9.8 -38)"/>
  </g>
  <g id="ud-icon-visit-2" data-name="ud-icon-visit">
    <path d="M397.1,214.4c-51.1-74.1-60.6-81.7-60.6-108.9a67.5,67.5,0,0,1,135,0c0,27.2-9.5,34.8-60.6,108.9a8.3,8.3,0,0,1-13.8,0Zm6.9-80.8a28.2,28.2,0,1,0-28.1-28.1A28.1,28.1,0,0,0,404,133.6Z" transform="translate(-9.8 -38)"/>
  </g>
  <g id="ud-icon-apply">
    <path d="M239.7,90,136.6,58.3a29.6,29.6,0,0,0-17.2,0L16.3,90a8.7,8.7,0,0,0,0,16.9l17.9,5.5a29.8,29.8,0,0,0-6.6,17.3,11.4,11.4,0,0,0-.9,19.6l-9.4,42.5a5.8,5.8,0,0,0,5.7,7.1H43.8a5.8,5.8,0,0,0,5.7-7.1l-9.4-42.5c7.2-5.1,6.7-14.9-.7-19.4a17.6,17.6,0,0,1,7.7-13.6c76.5,22.9,76.7,26.2,89.5,22.2l103.1-31.6a8.7,8.7,0,0,0,0-16.9Zm-99.6,59.8c-17.4,5.4-24.2-.7-77.8-16.4l-5.2,41.9c0,13.1,31.7,23.6,70.9,23.6s70.9-10.5,70.9-23.6l-5.2-41.9Z" transform="translate(-9.8 -38)"/>
  </g>
</svg>
