<svg aria-hidden="true" focusable="false" xmlns="http://www.w3.org/2000/svg" width="256" height="256" viewBox="0 0 256 256">
	<defs>
		<style>
			svg:hover {fill: white;}
		</style>
		<symbol id="ud-icon-apply" role="img" aria-label="apply icon" viewBox="0 0 256 256">
			<path d="M239.7 90L136.6 58.3a29.6 29.6 0 0 0-17.2 0L16.3 90a8.7 8.7 0 0 0 0 16.9l17.9 5.5a29.8 29.8 0 0 0-6.6 17.3 11.4 11.4 0 0 0-.9 19.6l-9.4 42.5a5.8 5.8 0 0 0 5.7 7.1h20.8a5.8 5.8 0 0 0 5.7-7.1l-9.4-42.5c7.2-5.1 6.7-14.9-.7-19.4a17.6 17.6 0 0 1 7.7-13.6c76.5 22.9 76.7 26.2 89.5 22.2l103.1-31.6a8.7 8.7 0 0 0 0-16.9zm-99.6 59.8c-17.4 5.4-24.2-.7-77.8-16.4l-5.2 41.9c0 13.1 31.7 23.6 70.9 23.6s70.9-10.5 70.9-23.6l-5.2-41.9z"></path>
    </symbol>
		<symbol id="ud-icon-visit" role="img" aria-label="visit icon" viewBox="0 0 256 256">
			<path d="M121.1,214.4C70,140.3,60.5,132.7,60.5,105.5a67.5,67.5,0,0,1,135,0c0,27.2-9.5,34.8-60.6,108.9a8.3,8.3,0,0,1-13.8,0Zm6.9-80.8a28.2,28.2,0,1,0-28.1-28.1A28.1,28.1,0,0,0,128,133.6Z"></path>
		</symbol>
		<symbol id="ud-icon-gift" role="img" aria-label="gift icon" viewBox="0 0 256 256">
			<path d="M207.5 94.4h-15c11.1-21.5-5-45.4-27.6-45.4-14.8 0-24.3 7.6-36.5 24.3C116.1 56.6 106.6 49 91.8 49c-22.9 0-38.6 24.3-27.6 45.4H48.5a11.4 11.4 0 0 0-11.3 11.4v28.4a5.7 5.7 0 0 0 5.7 5.7h4.3v55.7a11.3 11.3 0 0 0 11.3 11.3l137.6.2a11.4 11.4 0 0 0 11.4-11.4v-55.8h5.6a5.7 5.7 0 0 0 5.7-5.7v-28.4a11.4 11.4 0 0 0-11.3-11.4zm-115.7 0a14.2 14.2 0 1 1 0-28.3c7 0 12.3 1.1 30.5 28.3zm46.4 85.3a4 4 0 0 1-4 4h-14a4 4 0 0 1-4-4V119a4 4 0 0 1 4-4h14a4 4 0 0 1 4 4zm26.7-85.3h-30.6c18.3-27.1 23.4-28.3 30.6-28.3a14.2 14.2 0 1 1 0 28.3z"></path>
		</symbol>
	</defs>
</svg>
