<svg id="ud-img-udlogo" aria-hidden="true" focusable="false" xmlns="http://www.w3.org/2000/svg" viewBox="0 0 436 182" width="436" height="182">
  <defs>
    <style>
      .fill--current{fill:currentColor}
      .fill--white{fill:white}
    </style>
  </defs>
<path class="fill--current fill--white" d="M99.3 58c.8-4.8.2-5.2.4-36-1.7-2.5-3.5-4.7-6.9-4.7v-1.8h10.8L130.7 53h.1c-.3-34.3 2-34.8-6.7-35.7v-1.8h14.6v1.8c-2.8.3-4.8 1.3-5.1 3.8-.8 4.8-.2 4.6-.4 42.6h-1.9L102.2 24c.2 31.7-.3 29.9.4 34zM149.4 55c0 6.5-.2 6.1 4.7 6.9v1.8h-14.7v-1.8c4.9-.8 4.7-.4 4.7-6.9V24.1c0-6.4.2-6-4.7-6.8v-1.8h14.7v1.8c-4.9.8-4.7.4-4.7 6.8z"></path>
<path class="fill--current fill--white" d="M169 17.3c-3.3 0-5.7 1.1-3.7 7.7 2.3 8.1 5.8 19.9 8.9 30.3 3.8-10.5 7.4-21 11.1-31.6 1.5-4.3-.1-6.4-4.1-6.4v-1.8h12.9v1.8c-1.7 0-3.7.7-4.9 4.1-5 14.1-10.1 28.1-15.1 42.2h-3c-13.2-43.4-13.3-46.3-18.2-46.3v-1.8h16.2v1.8z"></path>
<path class="fill--current fill--white" d="M191.3 61.9c5.5-.8 5.2-.4 5.2-6.9V24.1c0-6.4.2-6-5.2-6.8v-1.8h27.2v11h-1.6c-.6-5.1-1.8-8.8-6.2-8.8h-8.3v19.7h5.1c3.8 0 5.5-1.7 5.6-6.1h1.6V46h-1.6c-.1-4-1.5-6.4-5.6-6.4h-5.1v15.5c0 5.9 2.4 6.4 7.9 6.4 8.8 0 8.4-2.9 11.2-10.2h1.6l-1.8 12.4h-30z"></path>
<path class="fill--current fill--white" d="M221.5 15.6h17.7c6.2 0 12.3 3.6 12.3 11.6s-3.8 12-8.5 14.1c2.3 3.7 10.1 18.4 14.6 21.5v.9h-6.3c-3.6 0-5.5-7.6-12.9-21.3h-5.7V55c0 6.5-.2 6.1 5.2 6.9v1.8h-16.4v-1.8c5.5-.8 5.2-.4 5.2-6.9V24.1c0-6.4.2-6-5.2-6.8zm11.1 24.6c2.7-.9 12.8 4.1 12.8-12.4 0-7.5-3.7-10.1-8.1-10.1h-4.7zM279.5 25.7c-.5-4.8-2.8-8.6-7.6-8.6s-6.6 2.1-6.6 7.1 4.2 7.7 10.2 12.9 8.4 8.9 8.4 14.6c0 8.1-7.3 12.8-14.6 12.8a24.1 24.1 0 0 1-10.3-2.2c-.7-.4-.2-1.9-.4-11h1.6c.7 7.6 5.1 10.7 9.7 10.7s7.8-3.8 7.8-8.8-2.1-8.1-11.1-14.9c-3.3-2.5-7.3-5.2-7.3-12.7s6-11 12.9-11a23.8 23.8 0 0 1 8.4 1.3c.4.1.4.4.4.8v9zM296.2 55c0 6.5-.2 6.1 5.2 6.9v1.8h-16.2v-1.8c5.4-.8 5.2-.4 5.2-6.9V24.1c0-6.4.2-6-5.2-6.8v-1.8h16.2v1.8c-5.4.8-5.2.4-5.2 6.8z"></path>
<path class="fill--current fill--white" d="M321.8 55c0 6.5-.2 6.1 5.3 6.9v1.8h-16.5v-1.8c5.5-.8 5.2-.4 5.2-6.9V17.7h-5.5c-5.3 0-6.5 3.8-8.5 8.3h-1.5l1.6-10.5h33.8l1.6 10.5h-1.5c-2-4.5-3.2-8.3-8.5-8.3h-5.6V55zM353 55V44.5l-9.4-21c-2-4.4-3.7-6.2-6.5-6.2v-1.8h15.5v1.8c-4.6 0-4.2 2.6-2.7 6.2l7.4 17.3 8.4-17.3c2.1-4.2.1-6.2-3.5-6.2v-1.8h12.5v1.8c-1.7 0-3.3.9-5 4.2-8.4 18.4-11.2 19.9-10.9 25.8V55c0 6.5-.2 6.1 5.2 6.9v1.8h-16.4v-1.8c5.9-.5 5.4-1.1 5.4-6.9zM392.3 31.4c8.2 0 13.5 8.6 13.5 15.5 0 9.5-6.2 17.4-14.9 17.4-18.7 0-17.5-32.9 1.4-32.9zm-.8 1.6c-14 0-11.5 29.8.5 29.8s12.7-29.8-.5-29.8zM421.5 43.4h1.1v9.7h-1.1c-.2-6.2-4.9-3.7-7.7-4.3V58c0 4.3-.2 4.1 3.5 4.6v1.2h-11.1v-1.2c3.7-.5 3.5-.3 3.5-4.6V37.7c0-4.3.2-4.1-3.5-4.6v-1.2h18.4v7.4h-1.1c-.5-3.3-1.2-5.9-4.2-5.9h-5.6v13.9c3.3-.4 7.6 1.6 7.8-3.9zM138 136c6.9-1 6.6-.5 6.6-8.7V87.4c0-8.2.3-7.8-6.6-8.7v-2.3h34.3v14.2h-2c-.8-6.5-2.3-11.4-7.8-11.4h-10.4v25.3c5.1-.8 13.2 2.9 13.5-7.8h2v18.9h-2c-.3-11.6-9.2-7.3-13.5-8.3v20c0 7.5 3 8.1 9.9 8.1 11.1 0 10.6-3.6 14.1-13.1h2l-2.3 15.9h-37.7V136z"></path>
<path class="fill--current fill--white" d="M184.3 127.3V87.4c0-8.2.3-7.8-6.7-8.7v-2.3h20.9v2.3c-7 1-6.7.5-6.7 8.7v41.3c0 6.2 3 6.8 9.9 6.8 11.3 0 10.8-3.6 14.4-13.1h1.9l-2.3 15.9h-38.1V136c7.3-.6 6.7-1.5 6.7-8.7z"></path>
<path class="fill--current fill--white" d="M208.9 117.7l-3.5 11.9c-1 3.4.5 6.3 3.8 6.3v2.3h-14v-2.3c5.9 0 6-4.8 24.2-60.7h4.3c16.4 55.9 16.6 60.7 21.9 60.7v2.3h-17.9v-2.3c8.6 0 2.9-8.6.8-18.3h-19.6zm18.6-3.4l-8.1-28.8h-.2l-9.1 28.8zM247.6 86.9l9.2 38.1h.2l15.6-47.9h2.9l15.4 47.3h.2c3.5-12.4 6.8-25.1 10.2-37.6 1.5-5.5.2-8.1-6.1-8.2v-2.3h17.1v2.3c-2.3 0-5.4 2-6.8 6.9L291 138.3h-3.6l-15.6-48.1-15.5 48.1H253c-11.8-42.9-11.5-59.7-20.5-59.7v-2.3h20.3v2.3c-1.4.5-7.6-1-5.2 8.3zM312.1 117.7l-3.4 11.9c-1 3.4.5 6.3 3.7 6.3v2.3h-13.6v-2.3c2 0 4.2-1.5 5.4-4.4 3.2-7.8 12-36.8 18.2-56.3h4.2c16.5 57.3 16.3 60.7 21.5 60.7v2.3h-17.5v-2.3c8.4 0 2.9-8.4.8-18.3h-19.3zm18.2-3.4l-8-28.8h-.1l-8.9 28.8z"></path>
<path class="fill--current fill--white" d="M341.7 76.3H364c19.8 0 19.8 26.2 4.8 33.1 2.7 4.5 12.7 23.7 18.3 27.7v1.1h-7.9c-4.5 0-7-9.6-16.3-27.4h-7.2v16.4c0 8.2-.3 7.8 6.6 8.7v2.3h-20.6v-2.3c6.9-1 6.6-.5 6.6-8.7V87.4c0-8.2.3-7.8-6.6-8.7zm14 31.7c3.2-1.1 16.1 5.3 16.1-15.9 0-16.6-13.1-12.4-16.1-13z"></path>
<path class="fill--current fill--white" d="M383.9 136c6.7-1 6.4-.5 6.4-8.7V87.4c0-8.2.3-7.8-6.4-8.7v-2.3h33.5v14.2h-1.9c-.8-6.5-2.2-11.4-7.6-11.4h-10.2v25.3c5-.8 12.8 3 13.2-7.8h1.9v18.9h-1.9c-.2-11.6-9.2-7.3-13.2-8.3v20c0 7.5 2.9 8.1 9.7 8.1 10.9 0 10.3-3.6 13.8-13.1h1.9l-2.2 15.9H384V136zM24.6 68.3c0 22.8 5.1 40.3 25.1 40.3 18.4 0 28.1-15.1 28.1-41.1-.4-49.5.8-40.4-.8-54.3-.7-5.9-5.2-8.1-11.6-9V0h31.7v4.2c-6.5.8-10.9 3.1-11.6 9-1.6 13.8-.2-.4-.8 54.9 0 35.1-18.4 48.1-35.8 48.1-28.6 0-37.5-17.7-37.5-47.1V20.4C11.6 5.2 12.1 6.1 0 4.3V0h36.2v4.2C24.1 6 24.6 5.2 24.6 20.3zM432.4 136h-.7v1.5h-.5v-3.8c1.1 0 1.8-.2 2.3.3a1.3 1.3 0 0 1-.4 2l.7 1.6h-.6zm-.7-1.8v1.2c.5-.1 1.4.2 1.4-.6s-1.1-.5-1.4-.6z"></path>
<path class="fill--current fill--white" d="M432.5 132.4c4.1 0 4.1 6.2 0 6.2s-4.1-6.2 0-6.2m0-.4c-4.6 0-4.6 7 0 7s4.6-7 0-7zM31 53h50.3c18.4 0 32.3 5.3 41.6 15.9s13.9 25.4 13.9 44.2c0 25.6-11.2 50.7-34.6 62-17.4 8.4-31.5 4.3-71.2 5.4v-4.8c8.9-1.2 12.5-1 12.9-8.3s.1-11.8.1-91.6c0-16.8.6-16.1-13-18.1zm27.7 101.6c0 19.9 4.1 20.1 18.2 20.1 21.5 0 33.7-11.9 39.4-32.4 2.2-7.8 3.2-17.4 3.2-28.8 0-31.9-12.9-54.7-44.5-54.7H58.7z"></path>
</svg>



