<svg id="ud-icon--chat" aria-hidden="true" aria-label="chat icon" focusable="false" xmlns="http://www.w3.org/2000/svg" viewBox="0 0 73 75"><defs><style>.white {fill:white}</style></defs>
<view id="tightcrop" viewBox="4.5 1.5 51 49"></view>
    <path d="M49.6,45.5c4.8,0,4.8,7.2,0,7.2S44.8,45.5,49.6,45.5ZM50,49Zm-.4.1Zm0,0Zm.4,0Zm15-3.6c4.8,0,4.8,7.2,0,7.2S60.2,45.5,65,45.5ZM65,49Zm0,.1Zm0,0Zm0,0ZM35.1,45.5c4.8,0,4.8,7.2,0,7.2S30.3,45.5,35.1,45.5ZM35,49Zm.1.1Zm0,0Zm-.1,0Z" transform="translate(-13.4 -12.5)"></path>
    <path d="M49.7,12.5C15.6,12.5.3,52.9,27,73V84a3.3,3.3,0,0,0,5,3l10.9-7.1C65.7,83.9,86,67.5,86,46.5,86,27.7,69.7,12.5,49.7,12.5Zm-7,62.3L32,81.6V70.4c-25.3-16.3-12.8-53,18.3-53,17.5,0,31.7,13,31.7,29.1C82.1,65.2,63,79.4,42.7,74.8Z" transform="translate(-13.4 -12.5)"></path>
</svg>
