<svg id="ud-icon--mail" aria-hidden="true" aria-label="mail icon" focusable="false" xmlns="http://www.w3.org/2000/svg" viewBox="0 0 100 100" width="93" height="70"><defs><style>.udblue {fill:udblue;currentcolor:currentColor}</style></defs>
  <path class="udblue" d="M84.9,14.9H15.1A11.3,11.3,0,0,0,3.9,26.2V73.8A11.3,11.3,0,0,0,15.1,85.1H84.9A11.3,11.3,0,0,0,96.1,73.8V26.2A11.2,11.2,0,0,0,84.9,14.9ZM91,73.8A6.2,6.2,0,0,1,84.9,80H15.1A6.2,6.2,0,0,1,9,73.8V26.2a6.1,6.1,0,0,1,6.1-6.1H84.9A6.1,6.1,0,0,1,91,26.2V73.8Z" transform="translate(-3.9 -14.9)"></path>
  <path class="udblue" d="M62.1,49.4,84.6,29.2c2.5-2.3-.9-6.1-3.4-3.9L50,53.3c-5.1-4.6-6.1-5.4-6.1-5.5-2.3-2.4,8.8,7.8-25.1-22.5-2.5-2.3-6,1.6-3.4,3.9L38.2,49.6,15.5,70.9c-2.5,2.3,1,6,3.5,3.7L42.1,53.1c6.1,5.1,6.2,6.2,8,6.2a2.3,2.3,0,0,0,1.7-.7l6.4-5.7C82.2,75.2,81,75.4,82.9,75.4a2.6,2.6,0,0,0,1.8-4.5Z" transform="translate(-3.9 -14.9)"></path>
</svg>
