<svg aria-hidden="true" focusable="false" xmlns="http://www.w3.org/2000/svg" width="100" height="100" viewBox="0 0 100 100">
  <defs>
    <style>
      .fill--current{fill:currentColor}
      .fill--blue{fill:hsl(206, 100%, 39%)}
      .fill--white{fill:hsl(0, 0%, 100%)}
      .fill--green{fill:hsl(158, 92%, 35%)}
      .fill--red{fill:hsl(8, 74%, 59%)}
      .fill--gblue{fill:hsl(214, 89%, 67%)}
      .fill--yellow{fill:hsl(45,99%, 66%)}
      .fill--gray{fill:hsl(0, 0%, 47%)}
      .fill--dark-gray{hsl(0, 0%, 20%);}
    </style>
    <symbol id="ud-icon-email" role="img" aria-label="Email icon" viewBox="0 0 50 50">
      <path class="fill--current fill--white" d="M22.394 22.394l-5.52-4.834L.999 31.127c.582.534 1.359.864 2.212.873h38.365c.856-.003 1.635-.335 2.216-.875l-.002.002L27.946 17.56z"></path>
      <path class="fill--current fill--white" d="M43.789.873C43.215.332 42.44 0 41.587 0H3.212c-.846.005-1.614.337-2.185.875l.002-.001 21.365 18.339zM0 2.807v26.604l15.47-13.162zM29.349 16.25l15.47 13.162V2.808z"></path>
    </symbol>

    <symbol id="ud-icon-phone" role="img" aria-label="Phone icon" viewBox="0 0 50 50">
      <path class="fill--current fill--white" d="M31.342 25.304l-4.957-4.957c-.465-.438-1.094-.706-1.785-.706-.727 0-1.384.297-1.857.777l-2.49 2.514c-2.443-1.363-4.347-2.467-6.485-4.628s-3.477-4.488-4.629-6.485l2.49-2.514c.489-.464.794-1.118.794-1.844 0-.691-.276-1.317-.724-1.775L6.742.729C6.281.28 5.651.003 4.956.003c-.73 0-1.388.305-1.855.795L3.1.799 1.714 2.185l.047.047C.873 3.362.274 4.758.096 6.282l-.004.038c-.658 5.427 1.809 10.385 8.552 17.104 9.28 9.28 16.775 8.576 17.104 8.552 1.56-.198 2.952-.795 4.108-1.683l-.02.015h.023l1.41-1.386c.485-.47.786-1.128.786-1.856 0-.693-.273-1.322-.717-1.786l.001.001z"></path>
    </symbol>
    <symbol id="ud-icon-hel" role="img" aria-label="Help icon" viewBox="0 0 50 50">
      <path class="fill--current fill--white" d="M18.01 24.006c0 1.104-.895 1.998-1.998 1.998s-1.998-.895-1.998-1.998c0-1.104.895-1.998 1.998-1.998 1.098.013 1.985.9 1.998 1.997v.001z"></path>
      <path class="fill--current fill--white" d="M16.012 0C7.169 0 0 7.169 0 16.012s7.169 16.012 16.012 16.012 16.012-7.169 16.012-16.012v-.025.001C32.024 7.158 24.866 0 16.036 0h-.025.001zm0 29.002c-7.188 0-13.014-5.827-13.014-13.014S8.825 2.974 16.012 2.974c7.188 0 13.014 5.827 13.014 13.014 0 7.188-5.827 13.014-13.014 13.014z"></path>
      <path class="fill--current fill--white" d="M15.893 20.009c-.828 0-1.499-.671-1.499-1.499.095-.619-.381-2.189 1.213-3.807s4.045-2.213 4.045-3.712c0-3.069-6.114-4.164-7.352-.071-.153.678-.75 1.176-1.464 1.176-.828 0-1.499-.671-1.499-1.499 0-.201.04-.393.111-.568l-.004.01c2.189-7.304 13.204-5.591 13.204.952 0 4.211-5.258 4.877-5.258 6.519v.999c0 .828-.671 1.499-1.499 1.499z"></path>
    </symbol>
    <symbol id="ud-icon-info" role="img" aria-label="Info icon" viewBox="0 0 50 50">
      <path class="fill--current fill--white" d="M49 0a49 49 0 1 0 49 49A49.1 49.1 0 0 0 49 0zm0 91.5A42.5 42.5 0 1 1 91.5 49 42.5 42.5 0 0 1 49 91.5z"></path>
      <path class="fill--current fill--white" d="M49 20.2a5 5 0 0 0-5 5 5 5 0 1 0 10 0 5 5 0 0 0-5-5zM49 38.4a4.2 4.2 0 0 0-4.2 4.2v32a4.2 4.2 0 0 0 8.4 0v-32a4.2 4.2 0 0 0-4.2-4.2z"></path>
    </symbol>
    <symbol id="ud-icon-close" role="img" aria-label="Close icon" viewBox="0 0 50 50">
      <path class="fill--current fill--white" d="M38.5 42.1L6 9.6C3.5 7.2 7.2 3.4 9.7 5.9l32.5 32.5c2.4 2.4-1.2 6.2-3.7 3.7z"></path>
      <path class="fill--current fill--white" d="M41.2 9.6L8.7 42.1c-2.4 2.4-6.2-1.2-3.7-3.7L37.5 5.9c2.4-2.5 6.2 1.2 3.7 3.7z"></path>
    </symbol>
    <symbol id="ud-icon-chat" role="img" aria-label="Chat icon" viewBox="0 0 98 98">
      <path d="M98.9,10.8A9.7,9.7,0,0,0,89.2,1H10.8A9.8,9.8,0,0,0,1,10.8V69.6a9.8,9.8,0,0,0,9.8,9.8H79.4L99,99Z" transform="translate(-1 -1)"></path>
      <path class="fill--current fill--white" d="M78.4,59.8c-60.6,0-57.8.5-57.8-1V51a.9.9,0,0,1,1-1c58,.4,57.8-.9,57.8,1v7.8A.9.9,0,0,1,78.4,59.8Z" transform="translate(-1 -1)"></path>
      <path class="fill--current fill--white" d="M78.4,45.1c-60.6,0-57.8.5-57.8-1V36.3a.9.9,0,0,1,1-1c58,.4,57.8-.9,57.8,1v7.8A.9.9,0,0,1,78.4,45.1Z" transform="translate(-1 -1)"></path>
      <path class="fill--current fill--white" d="M78.4,30.4c-60.6,0-57.8.5-57.8-1V21.6a.9.9,0,0,1,1-1c58,.4,57.8-.9,57.8,1v7.8A.9.9,0,0,1,78.4,30.4Z" transform="translate(-1 -1)"></path>
    </symbol>



    <symbol id="ud-icon-form" role="img" aria-label="Form icon" viewBox="0 0 75 98">
    <path d="M86.4,26.6C60.9,1.5,62.1,1,59.4,1H20a7.6,7.6,0,0,0-7.5,7.5v83A7.6,7.6,0,0,0,20,99H80a7.6,7.6,0,0,0,7.5-7.5C87.1,27.3,88.4,28.7,86.4,26.6Z" transform="translate(-12.5 -1)"></path>
    <path class="fill--current fill--white" d="M61.2,72.6H31.3a3.8,3.8,0,1,1,0-7.5H61.2a3.8,3.8,0,1,1,0,7.5Z" transform="translate(-12.5 -1)"></path>
    <path class="fill--current fill--white" d="M68.7,57.5H31.3a3.8,3.8,0,1,1,0-7.5H68.7a3.8,3.8,0,1,1,0,7.5Z" transform="translate(-12.5 -1)"></path>
    <path class="fill--current fill--white" d="M61.2,31.2a3.8,3.8,0,0,1-3.7-3.8V8.2l22.8,23Z" transform="translate(-12.5 -1)"></path>
  </symbol>

   <symbol id="ud-icon-support" role="img" aria-label="support icon" viewBox="0 0 98 98">
      <path d="M46.1,29.8,5.3,70.6A16.3,16.3,0,1,0,28.4,93.7L67.2,54.9ZM16.8,90.3a8.1,8.1,0,0,1-8.1-8.1A8.2,8.2,0,0,1,16.8,74,8.2,8.2,0,0,1,25,82.2,8.2,8.2,0,0,1,16.8,90.3Z" transform="translate(-0.5 -0.5)"></path>
      <path d="M78.1,41.3,61.8,37.2,57.7,20.9,76.6,2C50.5-6.3,20.5,22.1,48.7,50.3,61,62.6,77,66.6,89.3,54.3A31.5,31.5,0,0,0,97,22.4Z" transform="translate(-0.5 -0.5)"></path>
    </symbol>

    <symbol id="ud-icon-invisible" role="img" aria-label="invisible icon" viewBox="0 0 98 95">
    <path d="M95.7,46.7c4.4,0,4.4,6.6,0,6.6S91.4,46.7,95.7,46.7Z" transform="translate(-1 -2.6)"></path>
    <path d="M7.5,50A3.3,3.3,0,1,1,1,50,3.3,3.3,0,1,1,7.5,50Z" transform="translate(-1 -2.6)"></path>
    <path d="M94.2,97.4c-2.5,0,3,3.7-90.7-89.4C.6,5.1,5,.6,8,3.5L96.5,92a3.3,3.3,0,0,1,0,4.5A3.5,3.5,0,0,1,94.2,97.4Z" transform="translate(-1 -2.6)"></path>
    <path d="M50,40a9.6,9.6,0,0,0-8.7,5.5L54.4,58.9C63.6,54.1,60.2,40,50,40Z" transform="translate(-1 -2.6)"></path>
    <path d="M31.9,35.8c13.3-17.7,41-7.9,41,14.2a23.6,23.6,0,0,1-9,18.5l8.9,9.1C90,68.5,98.5,51.8,98.5,51.8V48c-.1,0-32.4-52.5-76-21.8Z" transform="translate(-1 -2.6)"></path>
    <path d="M57.9,71.9c-18.2,6.9-36.1-11.3-29.3-30L17.2,30.2A84.8,84.8,0,0,0,1.6,48v3.8S17.3,83.4,50,83.4a47.4,47.4,0,0,0,16.4-2.9Z" transform="translate(-1 -2.6)"></path>
  </symbol>

  </defs>
</svg>
