<svg id="ud-icon--form" aria-hidden="true" aria-label="form icon" focusable="false" xmlns="http://www.w3.org/2000/svg" viewBox="0 0 75 98"><defs><style>.white {fill:white}</style></defs>
<view id="tightcrop" viewBox="4.5 1.5 51 49"></view>
   <g>
    <path class="white" d="M89,26.3C63.5,1.2,64.8.7,62,.7H22.7a7.5,7.5,0,0,0-7.5,7.5V91.1a7.6,7.6,0,0,0,7.5,7.6H82.6a7.5,7.5,0,0,0,7.5-7.6C89.7,27,91.1,28.3,89,26.3ZM84.2,92l-63.3.2L20.3,6.6l40.6-.2,6.8,18.3,16.5,5.1Z" transform="translate(-15.2 -0.7)"></path>
    <path class="white" d="M64.2,29.5a3.8,3.8,0,0,1-3.7-3.8V6.5l22.8,23Z" transform="translate(-15.2 -0.7)"></path>
    <g id="_2" data-name="2">
      <g>
        <path class="white" d="M63.6,64.2H32.4a3.1,3.1,0,1,0,0,6.1H63.6A3.1,3.1,0,1,0,63.6,64.2Z" transform="translate(-15.2 -0.7)"></path>
        <path class="white" d="M71.2,55.2H31.9c-2.7,0-2.9-3.1-2.8-2.9a2.9,2.9,0,0,1,2.8-2.9H71.2c2.7,0,2.9,3.2,2.8,2.9A2.9,2.9,0,0,1,71.2,55.2Z" transform="translate(-15.2 -0.7)"></path>
      </g>
    </g>
  </g>
</svg>

