
 <svg id="ud-icon--text" aria-hidden="true" aria-label="text icon" focusable="false" xmlns="http://www.w3.org/2000/svg" viewBox="0 0 91 93"><defs><style>.white {fill:white}</style></defs>
<view id="tightcrop" viewBox="4.5 1.5 51 49"></view>
 <g>
    <path class="white" d="M19.4,3.6H81.7A14.5,14.5,0,0,1,96.1,18.3v44A14.5,14.5,0,0,1,81.7,77h-22C41.8,94.8,42.1,96.6,38.6,96.6a4.9,4.9,0,0,1-4.8-4.9V77H19.4A14.5,14.5,0,0,1,5,62.3v-44A14.6,14.6,0,0,1,19.4,3.6M80.7,9.9H20.5a9.5,9.5,0,0,0-9.3,9.5V61.9a9.5,9.5,0,0,0,9.3,9.5H39V90.3L57.5,71.4H80.7a9.4,9.4,0,0,0,9.2-9.5V19.4a9.4,9.4,0,0,0-9.2-9.5" transform="translate(-5 -3.6)"></path>
    <g id="_2" data-name="2">
      <g>
        <path class="white" d="M55.8,52.4H22.6a3.1,3.1,0,1,0,0,6.1H55.8A3.1,3.1,0,1,0,55.8,52.4Z" transform="translate(-5 -3.6)"></path>
        <path class="white" d="M79.1,28.8H22.2c-2.7,0-2.9-3.2-2.8-2.9A2.9,2.9,0,0,1,22.2,23H79.1c2.8,0,3,3.2,2.9,2.9A2.9,2.9,0,0,1,79.1,28.8Z" transform="translate(-5 -3.6)"></path>
        <path class="white" d="M73.4,43.4H22.2c-2.8,0-3-3.2-2.9-2.9a2.9,2.9,0,0,1,2.9-2.9H73.4c2.7,0,3,3.2,2.9,2.9A2.9,2.9,0,0,1,73.4,43.4Z" transform="translate(-5 -3.6)"></path>
      </g>
    </g>
  </g>
</svg>
