<svg id="ud-icon-support" role="img" aria-label="support icon" aria-hidden="true" focusable="false" xmlns="http://www.w3.org/2000/svg" width="100" height="100" viewBox="0 0 100 100">
  <defs>
    <style>
      .fill--current{fill:currentColor}
      .fill--white{fill:hsl(0, 0%, 100%)}
    </style>
    <symbol>
       <path d="M46.1,29.8,5.3,70.6A16.3,16.3,0,1,0,28.4,93.7L67.2,54.9ZM16.8,90.3a8.1,8.1,0,0,1-8.1-8.1A8.2,8.2,0,0,1,16.8,74,8.2,8.2,0,0,1,25,82.2,8.2,8.2,0,0,1,16.8,90.3Z" transform="translate(-0.5 -0.5)"></path>
      <path d="M78.1,41.3,61.8,37.2,57.7,20.9,76.6,2C50.5-6.3,20.5,22.1,48.7,50.3,61,62.6,77,66.6,89.3,54.3A31.5,31.5,0,0,0,97,22.4Z" transform="translate(-0.5 -0.5)"></path>
    </symbol>
  </defs>
</svg>
