<svg id="ud-icon-chat" role="img" aria-label="chat icon" aria-hidden="true" focusable="false" xmlns="http://www.w3.org/2000/svg" width="100" height="100" viewBox="0 0 100 100">
  <defs>
    <style>
      .fill--current{fill:currentColor}
      .fill--white{fill:hsl(0, 0%, 100%)}
    </style>
    <symbol>
      <path d="M98.9,10.8A9.7,9.7,0,0,0,89.2,1H10.8A9.8,9.8,0,0,0,1,10.8V69.6a9.8,9.8,0,0,0,9.8,9.8H79.4L99,99Z" transform="translate(-1 -1)"/>
      <path class="fill--current fill--white" d="M78.4,59.8c-60.6,0-57.8.5-57.8-1V51a.9.9,0,0,1,1-1c58,.4,57.8-.9,57.8,1v7.8A.9.9,0,0,1,78.4,59.8Z" transform="translate(-1 -1)"></path>
      <path class="fill--current fill--white" d="M78.4,45.1c-60.6,0-57.8.5-57.8-1V36.3a.9.9,0,0,1,1-1c58,.4,57.8-.9,57.8,1v7.8A.9.9,0,0,1,78.4,45.1Z" transform="translate(-1 -1)"></path>
      <path class="fill--current fill--white" d="M78.4,30.4c-60.6,0-57.8.5-57.8-1V21.6a.9.9,0,0,1,1-1c58,.4,57.8-.9,57.8,1v7.8A.9.9,0,0,1,78.4,30.4Z" transform="translate(-1 -1)"></path>
    </symbol>
  </defs>
</svg>
